<svg width="30" height="33" viewBox="0 0 30 33" fill="none" xmlns="http://www.w3.org/2000/svg">
<path d="M15 0C6.71581 0 7.35847e-08 6.71581 7.35847e-08 15C-0.000293069 17.9604 0.875274 20.8548 2.51647 23.3187C4.15766 25.7825 6.49111 27.7058 9.22304 28.8463C10.8632 31.1103 12.8569 32.3713 12.8569 32.3713C12.8569 32.3713 6.99036 25.9514 9.01606 19.9241C9.53244 18.3856 10.4827 17.1502 11.3569 15.8108C12.1698 14.5647 12.3846 13.0276 12.4828 11.5432C12.5838 10.0246 12.5312 8.34676 11.5268 7.20446C12.8128 8.13836 13.4665 9.75934 13.5618 11.3462C13.6571 12.933 13.2609 14.5064 12.8007 16.0278C15.6515 14.8527 19.0236 15.0235 21.7407 16.4794C20.7449 16.0939 15.4723 15.1885 13.0262 18.6772C11.6778 20.5979 10.9243 22.8729 10.8597 25.2188C10.8341 26.3924 11.0226 27.5105 11.3384 28.5966C11.4394 28.9444 11.5517 29.2894 11.6783 29.6315C12.7683 29.8781 13.8824 30.0024 15 30.0021C23.2841 30.0021 30 23.2863 30 15.0021C30 6.71795 23.2841 0 15 0ZM25.94 8.21091C25.94 8.21091 25.4087 9.43429 24.632 9.80486C24.1384 10.041 23.7479 10.0517 23.4755 9.91582L24.8269 8.74151L23.0629 9.05305C23.1298 8.75645 23.383 8.45985 23.8766 8.22442C24.6548 7.85314 25.9393 8.21091 25.94 8.21091ZM21.2065 11.4436C21.4619 11.0531 21.9889 10.7644 22.8218 10.6925C24.1377 10.5794 25.7892 11.7858 25.7892 11.7858C25.7892 11.7858 24.3667 13.2559 23.0516 13.369C22.2158 13.4402 21.6504 13.2453 21.3324 12.9046L23.9072 11.9472L21.2065 11.4436ZM14.5099 5.88078C14.8186 4.66807 16.4126 3.56489 16.4126 3.56489C16.4126 3.56489 17.286 5.29541 16.9773 6.50812C16.7817 7.27843 16.4303 7.72439 16.0263 7.90292L15.9716 5.29967L14.6792 7.56009C14.4096 7.21015 14.3143 6.65464 14.5099 5.88078ZM10.8206 11.5432C9.82051 11.7907 8.40224 11.0624 8.40224 11.0624C8.40224 11.0624 9.31906 9.7565 10.3191 9.50897C10.9543 9.35178 11.4138 9.43358 11.7004 9.65763L9.83118 10.7089L11.9735 10.7679C11.8249 11.1001 11.4557 11.386 10.8206 11.5432ZM12.7716 7.63904L10.8099 6.63117L11.9735 8.50395C11.6044 8.56441 11.1492 8.41006 10.6541 7.95343C9.87172 7.23504 9.69533 5.60623 9.69533 5.60623C9.69533 5.60623 11.3362 5.65318 12.1136 6.37156C12.6108 6.82464 12.8014 7.26563 12.7716 7.63904ZM13.7866 5.64037L12.9551 3.59618L12.6172 5.77552C12.2979 5.58063 12.0532 5.16667 11.9771 4.49523C11.854 3.44255 12.7808 2.08687 12.7808 2.08687C12.7808 2.08687 13.9957 3.19218 14.1187 4.24486C14.1948 4.91772 14.0526 5.37436 13.7866 5.64037ZM15.7994 14.2887C15.4921 14.2888 15.1917 14.1978 14.9361 14.0272C14.6806 13.8566 14.4814 13.614 14.3637 13.3301C14.246 13.0462 14.2152 12.7338 14.2751 12.4324C14.3351 12.131 14.483 11.8542 14.7003 11.6369C14.9176 11.4196 15.1945 11.2716 15.4959 11.2117C15.7973 11.1518 16.1096 11.1826 16.3935 11.3003C16.6774 11.4179 16.92 11.6171 17.0907 11.8727C17.2613 12.1283 17.3523 12.4287 17.3521 12.736C17.3521 13.1478 17.1886 13.5427 16.8974 13.8339C16.6062 14.1251 16.2112 14.2887 15.7994 14.2887ZM18.1609 3.8686C18.5563 2.88491 20.0144 2.13381 20.0144 2.13381C20.0144 2.13381 20.5564 3.68367 20.1631 4.66807C19.9134 5.29399 19.5699 5.62899 19.2107 5.73497L19.4518 3.54284L18.1175 5.29896C17.929 4.97391 17.9112 4.49381 18.1609 3.8686ZM19.6481 9.95209L21.9363 6.89363L18.3998 8.33964C18.4034 7.69026 18.7982 6.95765 19.7207 6.24353C21.1731 5.11901 24.0139 5.28261 24.0139 5.28261C24.0139 5.28261 23.4605 8.07363 22.0081 9.19459C21.0856 9.91226 20.2776 10.1107 19.6481 9.95209ZM18.8565 20.6802C18.8565 20.6802 17.6644 19.5507 17.5606 18.4959C17.4958 17.8259 17.648 17.3699 17.9162 17.1117L18.7064 19.1744L19.0884 17.0022C19.4035 17.2042 19.6396 17.6224 19.7043 18.2924C19.811 19.3444 18.8565 20.6802 18.8565 20.6802ZM21.5984 17.9724C20.8381 17.5179 20.4739 17.0015 20.412 16.5129L23.2087 17.2832L21.2065 15.1842C21.6667 15.0071 22.2941 15.0832 23.0558 15.5398C24.2522 16.2554 24.9222 18.3081 24.9229 18.3088C24.9236 18.3095 22.7948 18.6879 21.5984 17.9724ZM25.0204 15.8507C24.4812 15.7596 24.1554 15.5441 24.0103 15.2767L25.7921 15.0924L24.169 14.3364C24.3937 14.1315 24.7721 14.0341 25.3113 14.123C26.1605 14.2652 27.0069 15.2966 27.0069 15.2966C27.0069 15.2966 25.8696 15.9929 25.0204 15.8507Z" fill="#1A8D8D"/>
</svg>
